<svg width="3677" height="689" viewBox="0 0 3677 689" fill="none" xmlns="http://www.w3.org/2000/svg">
<path fill-rule="evenodd" clip-rule="evenodd" d="M265.085 0.888481C176.141 7.33148 95.1786 54.9745 46.0106 129.805C22.5506 165.508 8.23565 203.885 1.43265 249.305C-0.67435 263.373 -0.39735 312.257 1.86965 326.305C7.19565 359.314 15.3657 385.396 28.9657 412.805C49.4487 454.085 77.4467 487.807 114.08 515.323C203.74 582.666 324.634 591.146 423.085 536.995C489.164 500.65 538.577 439.068 560.115 366.22C571.958 326.165 574.619 280.479 567.527 238.952C552.728 152.293 499.556 77.7275 422.05 34.9425C387.14 15.6715 346.257 3.84747 304.085 0.826469C288.485 -0.291531 281.207 -0.279519 265.085 0.888481ZM1143.38 32.7365C1126.22 38.2255 1116.22 50.7385 1114.86 68.4375C1113.32 88.5785 1122.36 104.054 1139.08 109.874C1146.56 112.477 1163.71 113.552 1171.58 111.911C1187.18 108.66 1199.35 98.3145 1203.21 85.0205C1205.43 77.4025 1205.16 64.7975 1202.61 56.5755C1198.82 44.3925 1187.66 34.8375 1173.79 31.9205C1165.56 30.1905 1150.04 30.6075 1143.38 32.7365ZM268.983 38.8525C209.361 42.7525 153.733 67.9245 111.081 110.305C87.7117 133.526 72.0816 156.292 57.9076 187.755C55.5666 192.952 53.8316 197.385 54.0526 197.606C54.2726 197.826 55.9456 196.904 57.7686 195.556C64.2506 190.766 78.8556 182.531 91.8756 176.326C170.598 138.808 279.397 127.165 380.585 145.43C429.004 154.17 475.893 171.416 508.335 192.419C512.873 195.357 516.585 197.36 516.585 196.871C516.585 196.382 515.075 192.455 513.229 188.144C501.903 161.686 484.583 136.012 463.286 114.109C441.789 92.0015 421.65 77.3415 394.085 63.7365C355.312 44.6015 312.203 36.0265 268.983 38.8525ZM1284.58 266.305V477.805H1320.58H1356.58V266.305V54.8055H1320.58H1284.58V266.305ZM2492.58 266.305V477.805H2528.07H2563.55L2563.82 380.055C2564.08 284.304 2564.13 282.19 2566.14 276.678C2569.28 268.064 2574.42 260.237 2581.72 252.937C2589.79 244.862 2596.8 240.539 2608.32 236.518C2616.15 233.787 2618.63 233.415 2631.58 233.028C2643.04 232.686 2647.45 232.95 2652.58 234.284C2670.72 238.998 2681.67 250.088 2687.79 269.966L2690.05 277.305L2690.34 377.555L2690.64 477.805H2726.61H2762.58L2762.57 385.055C2762.56 289.129 2762.01 271.312 2758.49 253.077C2754.77 233.78 2746.3 214.074 2736.58 202.08C2713.01 173 2664.19 161.813 2622.22 175.873C2602.95 182.33 2583.72 194.557 2569.81 209.208L2562.58 216.811V135.808V54.8055H2527.58H2492.58V266.305ZM1884.58 72.3845C1827.78 81.3265 1784.41 115.437 1772.44 160.572C1769.82 170.472 1768.81 194.088 1770.51 205.735C1774.26 231.384 1783.26 249.727 1800.49 266.84C1820.29 286.502 1849 300.169 1888.58 308.773C1931.48 318.096 1946.61 323.636 1963.06 336.045C1976.45 346.152 1982.11 356.966 1982.04 372.305C1982.01 380.115 1981.62 382.098 1979.12 387.305C1972.68 400.737 1956.98 411.542 1937.49 415.956C1924.03 419.003 1901.25 418.969 1886.58 415.879C1872.22 412.852 1857.7 406.96 1846.48 399.607C1835.32 392.285 1815.4 372.902 1804.8 359.045L1797.72 349.786L1774.49 376.045C1761.71 390.488 1750.66 403.001 1749.95 403.852C1748.83 405.172 1749.69 406.708 1755.77 414.352C1768.88 430.81 1786.97 446.956 1804.36 457.717C1832.67 475.229 1866.74 483.805 1908.01 483.805C1981.98 483.805 2034.62 452.112 2051.92 397.163C2057.91 378.127 2059.19 349.458 2054.78 333.305C2050.71 318.434 2042.47 303.465 2032.41 292.656C2010.62 269.24 1974.67 251.947 1924.57 240.777C1886.99 232.398 1869.06 225.067 1857.24 213.241C1849.25 205.249 1845.51 197.212 1844.85 186.565C1843.25 160.885 1861.44 142.728 1893.78 137.737C1906.36 135.794 1928.19 136.995 1938.98 140.222C1962.74 147.323 1983.42 161.975 1998.05 182.055C2000.76 185.767 2003.33 188.805 2003.76 188.805C2005.08 188.805 2052.58 141.637 2052.58 140.33C2052.58 138.13 2042.46 124.652 2034.71 116.533C2013.48 94.3065 1985.13 79.6485 1951.76 73.6465C1936.18 70.8445 1898.82 70.1425 1884.58 72.3845ZM782.255 77.4685C781.887 77.8375 781.585 168.063 781.585 277.972V477.805H819.085H856.585V395.805V313.805H940.098H1023.61L1023.35 280.055L1023.08 246.305L939.835 246.049L856.585 245.794V196.299V146.805H952.098H1047.61L1047.35 112.055L1047.08 77.3055L915.005 77.0515C842.362 76.9125 782.624 77.0995 782.255 77.4685ZM1554.52 169.97C1533.12 171.255 1511.77 177.348 1491.49 187.952C1456.43 206.289 1429.98 240.988 1419.19 282.805C1414.73 300.066 1414.08 306.149 1414.12 330.305C1414.15 350.368 1414.45 354.646 1416.43 363.805C1425.22 404.508 1446.77 436.173 1480.58 458.06C1506.91 475.102 1538.55 483.805 1574.17 483.805C1611.66 483.805 1655.49 468.828 1684.5 446.11C1688.57 442.917 1692.34 439.604 1692.87 438.747C1693.62 437.54 1689.93 431.745 1676.5 413.011C1661.17 391.609 1658.98 388.974 1657.48 390.068C1656.55 390.748 1651.8 394.341 1646.94 398.052C1636.31 406.148 1621.03 413.94 1610.08 416.836C1599.86 419.54 1575.09 420.59 1562.07 418.87C1557.13 418.218 1548.26 416.084 1542.36 414.13C1511.63 403.954 1489.89 379.073 1484.17 347.555L1483.49 343.805H1593.98C1668.01 343.805 1704.67 343.468 1705.1 342.785C1705.44 342.224 1705.78 331.986 1705.84 320.035C1705.92 303.547 1705.54 296.013 1704.24 288.805C1699.61 262.96 1689.08 238.178 1675.6 221.373C1662.81 205.428 1646.33 192.106 1629.08 183.765C1604.91 172.074 1583.97 168.2 1554.52 169.97ZM2962.58 169.545C2924.65 172.46 2891.74 187.232 2866.53 212.654C2839.22 240.2 2825.1 272.619 2821.57 315.896C2817.94 360.286 2830.75 401.518 2857.8 432.508C2879.01 456.812 2911.5 474.428 2947.15 480.964C2964.93 484.222 2996.43 484.228 3012.54 480.977C3040.66 475.304 3070.53 462.419 3090.08 447.531C3096.13 442.925 3101.04 438.493 3100.98 437.682C3100.89 436.481 3093.39 425.731 3067 388.98C3066.87 388.801 3063.16 391.509 3058.75 394.996C3042.42 407.907 3027.46 415.071 3009.96 418.363C2996.68 420.861 2970.55 419.952 2957.57 416.542C2930.9 409.532 2911.23 394.087 2899.71 371.102C2896.59 364.877 2891.58 349.225 2891.58 345.698C2891.58 343.866 2894.62 343.808 3002.33 343.56L3113.08 343.305L3113.05 318.305C3113.01 290.257 3112.1 283.376 3105.93 264.87C3098.86 243.635 3089.88 227.932 3076.6 213.569C3055.69 190.964 3028.87 176.452 2998.58 171.357C2989.89 169.894 2970.65 168.926 2962.58 169.545ZM3525.58 169.874C3453.02 174.505 3399.23 224.012 3386.05 298.305C3383.56 312.308 3383.06 337.009 3384.96 351.376C3389.93 388.906 3403.36 416.041 3429.23 440.805C3458.7 469.021 3498.11 483.814 3543.8 483.802C3558.75 483.798 3570.32 482.305 3586.12 478.34C3614.75 471.152 3642.88 457.145 3660.98 441.066L3664.63 437.827L3647.01 413.266L3629.38 388.704L3626.23 391.272C3611.06 403.643 3593.77 413.283 3580.08 417.009C3573.06 418.921 3569.53 419.187 3551.08 419.19C3531.4 419.193 3529.46 419.024 3520.09 416.496C3503.12 411.911 3491.42 405.501 3479.72 394.362C3466.66 381.934 3457.95 365.969 3454.72 348.555L3453.84 343.805H3564.57H3675.31L3675.94 338.555C3677.04 329.409 3676.6 304.7 3675.14 293.784C3671.73 268.163 3662 242.946 3648.53 224.841C3619.77 186.169 3576.11 166.65 3525.58 169.874ZM3320.42 171.372C3306.69 173.856 3289.89 181.441 3277.55 190.722C3268.95 197.196 3255.97 210.799 3250.22 219.367L3245.62 226.23L3245.35 201.268L3245.08 176.305L3210.33 176.042L3175.58 175.779V326.792V477.805H3211.03H3246.47L3246.83 391.055C3247.22 293.837 3246.77 299.946 3254.75 283.982C3262.66 268.153 3277.82 255.086 3295.08 249.217C3310.44 243.997 3333.57 245.165 3346.61 251.818C3349.65 253.371 3350.73 253.557 3351.08 252.585C3352.71 248.038 3369.55 177.146 3369.21 176.27C3368.24 173.749 3347.27 169.759 3335.7 169.895C3331.51 169.944 3324.64 170.609 3320.42 171.372ZM2279.58 171.429C2249.42 175.273 2223.26 187.449 2203.83 206.692L2196.58 213.873V200.986C2196.58 193.898 2196.29 185.327 2195.94 181.939L2195.3 175.779L2160.69 176.042L2126.08 176.305L2125.83 390.055L2125.58 603.805H2161.58H2197.58V523.768V443.732L2205.15 450.334C2223.12 466.004 2246.25 477.044 2270.08 481.333C2281.83 483.447 2304.24 483.466 2315.84 481.372C2343.13 476.448 2367.14 463.427 2386.91 442.834C2408.27 420.583 2421.81 392.768 2427.7 359.076C2430.89 340.823 2430.87 312.708 2427.66 294.305C2423.67 271.388 2415.39 250.136 2403.14 231.305C2383.15 200.582 2351.72 179.408 2317.08 173.32C2307.97 171.719 2286 170.611 2279.58 171.429ZM261.585 175.401C243.424 176.641 228.388 178.121 216.085 179.879C125.733 192.79 54.7426 229.826 39.9296 271.782C36.9366 280.26 36.8046 291.07 39.5856 300.073C47.3496 325.209 82.0886 353.249 127.585 371.102C168.282 387.071 231.679 397.782 285.602 397.8C340.95 397.819 405.536 386.453 447.724 369.268C459.739 364.374 477.637 355.592 479.71 353.573C480.466 352.837 483.56 350.73 486.585 348.891C501.523 339.808 518.184 324.166 525.17 312.667C530.888 303.253 532.931 296.505 532.999 286.805C533.109 271.002 527.715 260.029 512.085 244.26C478.435 210.311 411.483 185.138 334.085 177.334C318.92 175.804 273.43 174.592 261.585 175.401ZM1125.25 176.472C1124.88 176.838 1124.58 244.788 1124.58 327.472V477.805H1160.08H1195.58V326.805V175.805H1160.75C1141.59 175.805 1125.62 176.105 1125.25 176.472ZM213.085 215.334C144.334 230.331 138.965 231.669 128.852 236.327C112.565 243.83 100.265 260.907 97.5956 279.724C96.4036 288.13 97.4686 298.161 101.725 318.631L104.912 333.957L120.855 341.94C129.625 346.331 136.979 349.744 137.2 349.524C137.42 349.303 135.078 337.239 131.995 322.714C125.223 290.805 124.688 282.973 128.758 275.305C131.952 269.288 137.795 263.44 142.621 261.43C144.566 260.62 149.741 259.048 154.121 257.938C164.559 255.292 263.922 233.805 265.719 233.805C266.725 233.805 268.839 241.829 273.425 263.055C287.306 327.306 288.753 333.407 291.547 339.456C297.446 352.23 307.995 359.065 322.585 359.565C330.244 359.828 335.831 358.824 379.075 349.411C411.666 342.316 427.281 339.312 427.736 340.05C428.106 340.647 428.697 343.067 429.051 345.428L429.695 349.72L441.39 345.628C447.822 343.377 454.047 341.177 455.222 340.738L457.359 339.941L454.949 328.779C452.409 317.012 450.967 313.299 447.937 310.728C446.919 309.863 419.76 291.882 387.585 270.769C272.873 195.496 282.873 201.792 278.237 201.916C275.953 201.978 246.635 208.015 213.085 215.334ZM1545.64 234.282C1515.21 239.996 1495.44 258.4 1486.24 289.555L1484.69 294.805H1560.78H1636.87L1636.26 289.055C1635.34 280.468 1631.91 271.463 1626.43 263.266C1618.14 250.867 1607.16 242.517 1591.35 236.565C1583.65 233.67 1582.06 233.438 1568.08 233.171C1558.27 232.983 1550.51 233.367 1545.64 234.282ZM2953.22 234.358C2935.86 237.807 2925.03 243.313 2914.04 254.28C2907.82 260.492 2904.96 264.339 2901.4 271.305C2897.77 278.385 2892.58 291.982 2892.58 294.41C2892.58 294.627 2926.78 294.805 2968.58 294.805H3044.58V292.465C3044.58 288.313 3040.79 275.149 3038.01 269.651C3029.61 253.043 3012.4 239.745 2992.81 234.735C2983.75 232.418 2963.93 232.229 2953.22 234.358ZM3520.58 233.471C3511.61 234.882 3502.83 237.603 3494.58 241.529C3477.45 249.683 3463.8 266.196 3457.68 286.16C3456.53 289.931 3455.58 293.418 3455.58 293.91C3455.58 294.429 3487.34 294.805 3531.08 294.805H3606.58V290.357C3606.58 283.875 3602.24 271.237 3597.56 264.109C3588.6 250.455 3570.79 238.116 3554.58 234.347C3548.56 232.946 3527.39 232.401 3520.58 233.471ZM2267.58 234.782C2245.84 237.537 2227.02 248.092 2214.54 264.54C2208.28 272.787 2201.38 286.753 2198.66 296.682C2191.6 322.47 2194.55 354.746 2205.91 375.805C2221.73 405.154 2245.75 419.792 2278.08 419.792C2300.56 419.792 2317.36 413.382 2332.96 398.847C2343.31 389.205 2353.59 370.84 2357.65 354.761C2360.36 344.008 2361.36 320.549 2359.62 308.629C2356.26 285.641 2345.43 265.186 2329.72 252.157C2322.02 245.766 2307.91 238.648 2298.58 236.45C2290.29 234.496 2275.94 233.724 2267.58 234.782ZM300.058 249.985C300.359 251.261 303.991 268.055 308.129 287.305C312.267 306.555 316.124 323.771 316.699 325.563C317.915 329.348 320.844 331.245 325.085 330.992C329.694 330.717 400.577 315.391 400.581 314.669C400.584 314.186 307.82 252.599 300.893 248.485C299.831 247.854 299.638 248.201 300.058 249.985ZM516.109 374.766C515.372 375.958 499.844 385.561 493.085 389.004C475.358 398.033 458.256 404.998 432.085 413.844C403.539 423.492 374.31 429.52 337.085 433.438C315.939 435.664 259.1 435.976 239.085 433.977C207.294 430.801 186.071 427.046 159.585 419.912C116.981 408.437 83.7076 394.407 56.2936 376.358L53.5016 374.521L55.4416 379.413C65.4556 404.662 81.6886 430.385 101.756 452.805C112.295 464.58 134.887 484.836 136.114 483.61C136.398 483.325 134.24 471.83 131.316 458.065L126.001 433.038L138.543 437.54C145.441 440.016 152.551 442.515 154.342 443.094C158.207 444.341 157.423 441.752 165.234 479.044L171.045 506.784L183.123 512.224C205.286 522.209 229.561 529.133 254.051 532.458C267.605 534.298 299.38 534.513 313.085 532.857C361.267 527.037 403.848 509.152 441.085 479.094C446.585 474.655 452.033 469.961 453.192 468.664L455.298 466.305L451.928 450.902C450.074 442.43 448.677 435.453 448.821 435.396C448.966 435.339 452.685 433.544 457.085 431.407C461.485 429.271 467.405 426.487 470.241 425.219L475.397 422.913L477.221 431.939L479.046 440.965L481.348 438.135C493.228 423.53 509.09 395.649 516.666 376.055C517.544 373.782 517.204 372.994 516.109 374.766ZM855.421 585.823L845.757 590.738L847.263 596.521C848.091 599.702 848.932 602.472 849.132 602.676C849.331 602.881 851.508 601.868 853.968 600.426C856.428 598.985 858.699 597.805 859.013 597.805C859.328 597.805 859.585 607.255 859.585 618.805V639.805H853.585H847.585V646.305V652.805H866.085H884.585V646.305V639.805H878.585H872.585V610.305V580.805L868.835 580.857C866.397 580.89 861.705 582.626 855.421 585.823ZM936.585 582.112C931.482 583.721 923.303 592.304 921.147 598.313C920.021 601.451 919.167 607.452 918.848 614.472C918.416 623.973 918.658 626.686 920.471 632.655C924.687 646.534 933.059 653.277 946.004 653.217C954.075 653.179 959.028 651.127 964.284 645.643C970.795 638.849 974.364 625.353 973.16 612.074C971.371 592.329 961.247 580.652 946.139 580.907C942.809 580.963 938.51 581.506 936.585 582.112ZM1018.42 585.823L1008.76 590.738L1010.26 596.521C1011.09 599.702 1011.93 602.469 1012.12 602.67C1012.32 602.87 1014.59 601.858 1017.16 600.42C1019.73 598.982 1022 597.805 1022.21 597.805C1022.42 597.805 1022.58 607.255 1022.58 618.805V639.805H1016.58H1010.58V646.305V652.805H1029.08H1047.58V646.305V639.805H1041.58H1035.58V610.305V580.805L1031.83 580.857C1029.4 580.89 1024.7 582.626 1018.42 585.823ZM937.577 596.693C933.174 601.321 931.585 606.724 931.585 617.066C931.585 626.555 933.898 634.36 937.785 637.992C940.26 640.303 941.693 640.805 945.823 640.805C950.245 640.805 951.235 640.396 954.06 637.4C958.565 632.623 959.898 626.93 959.396 614.607C958.765 599.106 954.598 592.805 944.98 592.805C941.977 592.805 940.575 593.541 937.577 596.693ZM781.585 599.42C781.585 599.929 793.968 629.717 801.802 648.055C803.815 652.768 803.869 652.805 808.569 652.805H813.306L824.946 626.43C831.347 611.924 836.585 599.774 836.585 599.43C836.585 599.086 833.516 598.805 829.766 598.805H822.947L816.11 616.349C812.35 625.999 808.949 633.536 808.552 633.099C808.155 632.662 805.016 624.767 801.578 615.555L795.326 598.805H788.455C784.677 598.805 781.585 599.082 781.585 599.42ZM897.04 639.26C892.136 644.163 895.413 653.805 901.984 653.805C903.353 653.805 905.726 652.728 907.257 651.411C910.997 648.194 911.229 641.555 907.701 638.698C904.436 636.054 900.012 636.287 897.04 639.26ZM984.22 638.878C980.609 641.718 980.521 647.832 984.04 651.35C990.107 657.418 999.332 650.629 996.535 642.154C994.694 636.576 989.054 635.075 984.22 638.878Z" fill="#050506"/>
<path fill-rule="evenodd" clip-rule="evenodd" d="M3268 645V656H3278.5H3289V645V634H3278.5H3268V645Z" fill="#8FBF55"/>
<path fill-rule="evenodd" clip-rule="evenodd" d="M3333 667V678H3344H3355V667V656H3344H3333V667Z" fill="#935B9E"/>
<path fill-rule="evenodd" clip-rule="evenodd" d="M3333 623V634H3322H3311V645V656H3300H3289V667V678H3311H3333V667V656H3344H3355V634V612H3344H3333V623Z" fill="#37B7D5"/>
<path fill-rule="evenodd" clip-rule="evenodd" d="M3246 623.5V678H3267.5H3289V667.1V656.2H3278.25H3267.5V645.3V634.4H3278.25H3289V623.5V612.6H3278.25H3267.5V601.7V590.8H3278.25H3289V579.9V569H3267.5H3246V623.5Z" fill="#4B4B99"/>
<path fill-rule="evenodd" clip-rule="evenodd" d="M3289.67 579.75V590.5H3278.83H3268V601.25V612H3300.5H3333V601.25V590.5H3322.17H3311.33V579.75V569H3300.5H3289.67V579.75Z" fill="#E4813F"/>
<path fill-rule="evenodd" clip-rule="evenodd" d="M3335 553.75V564.5H3345.83H3356.66V575.25V586H3367.83H3379V564.5V543H3357H3335V553.75Z" fill="#DA4759"/>
<path fill-rule="evenodd" clip-rule="evenodd" d="M3289 634V656H3300H3311V645V634H3322H3333V623V612H3311H3289V634Z" fill="#FAD053"/>
<path fill-rule="evenodd" clip-rule="evenodd" d="M3661.8 564.736C3654.66 567.962 3653.51 577.029 3659.54 582.459C3662.29 584.932 3662.42 584.972 3667.03 584.712C3671.37 584.468 3671.91 584.261 3674.21 581.963C3676.41 579.775 3676.74 579.011 3676.96 575.547C3677.25 571.053 3675.94 567.827 3672.92 565.621C3670.59 563.919 3664.65 563.447 3661.8 564.736ZM3449.4 591.957C3442.96 593.351 3436.25 597.193 3431.6 602.142C3425.02 609.15 3422 617.103 3422 627.41C3422 644.879 3432.34 658.299 3448.97 662.422C3460.23 665.212 3478.57 662.009 3483.94 656.315C3486.47 653.626 3486.23 649.663 3483.38 647.122C3480.6 644.647 3477.54 644.555 3471.58 646.766C3469.19 647.65 3465.78 648.585 3463.99 648.843C3460.45 649.356 3454.2 648.331 3450.92 646.699C3446.7 644.603 3443.03 640.187 3441.72 635.64L3441.2 633.838L3450.42 633.398C3455.49 633.155 3465.57 632.957 3472.83 632.957C3487.39 632.957 3489.15 632.566 3491.05 628.913C3494.36 622.526 3489.33 607.873 3481.16 600.106C3472.95 592.31 3461.43 589.354 3449.4 591.957ZM3539.21 591.647C3534.79 592.517 3530.85 594.488 3527.12 597.704L3523.73 600.632L3523.1 598.429C3521.54 593.027 3516.1 590.557 3510.84 592.872C3505.06 595.419 3505.37 593.113 3505.12 635.299C3505 655.82 3505.11 675.189 3505.36 678.342C3505.79 683.601 3506.01 684.253 3508.02 686.252C3511 689.226 3514.29 689.779 3518.1 687.945C3523.13 685.516 3523.38 684.615 3523.38 668.206V653.843L3526.71 656.624C3534.35 662.992 3544.36 665.065 3553.75 662.223C3568.1 657.879 3575.31 646.068 3575.19 627.059C3575.11 614.147 3572.67 606.916 3566.01 599.905C3561.65 595.316 3558.27 593.315 3552.62 591.989C3547.84 590.866 3543.72 590.761 3539.21 591.647ZM3606.78 591.649C3598.34 592.946 3590.58 598.139 3587.45 604.586C3585.63 608.326 3585.4 616.524 3587.01 620.35C3588.47 623.849 3592.5 628.051 3596.13 629.881C3599.4 631.525 3606.67 633.672 3613.52 635.017C3622.22 636.723 3626.79 639.103 3626.79 641.921C3626.79 644.441 3624.82 647.016 3622.04 648.124C3616.53 650.321 3608.1 649.229 3599.58 645.211C3593.56 642.375 3590.61 642.429 3587.6 645.429C3582.99 650.02 3585 655.151 3592.9 658.968C3607.64 666.097 3628.83 664.6 3638.25 655.762C3643.45 650.883 3645.61 642.6 3643.54 635.497C3640.89 626.433 3634.54 622.237 3617.73 618.469C3607.09 616.082 3604.14 614.682 3603.8 611.841C3603.06 605.807 3614.11 603.177 3624.41 606.931C3632.48 609.873 3633.4 610.108 3635.11 609.68C3636.02 609.453 3637.58 608.511 3638.58 607.588C3640.83 605.511 3641.08 601.461 3639.1 598.961C3637.38 596.784 3632.01 593.921 3627.39 592.724C3622.44 591.437 3611.77 590.882 3606.78 591.649ZM3663.19 592.598C3662.07 593.105 3660.39 594.333 3659.45 595.33L3657.75 597.141L3657.54 624.03C3657.42 638.819 3657.52 652.519 3657.75 654.474C3658.76 662.774 3667.88 665.406 3673.74 659.086L3675.44 657.251L3675.63 627.99C3675.8 599.852 3675.76 598.644 3674.47 596.561C3671.98 592.56 3667.09 590.839 3663.19 592.598ZM3450.07 607.271C3446.75 608.907 3444.1 611.777 3442.32 615.673C3439.86 621.047 3438.98 620.757 3457.72 620.757H3474.39V619.035C3474.39 616.778 3472.02 612.213 3469.74 610.073C3465.09 605.71 3455.89 604.4 3450.07 607.271ZM3532.36 608.652C3530.37 609.411 3527.54 611.178 3526.06 612.578L3523.38 615.124V627.36V639.595L3525.89 641.797C3530.07 645.448 3533.89 646.833 3539.78 646.825C3544.25 646.819 3545.34 646.569 3547.72 644.997C3552.75 641.682 3555.03 637.713 3556.09 630.46C3557.56 620.351 3552.75 611.018 3544.66 608.273C3540.48 606.854 3536.75 606.969 3532.36 608.652Z" fill="#050506"/>
</svg>
